<?xml version="1.0" encoding="UTF-8"?><svg id="Layer_2" xmlns="http://www.w3.org/2000/svg" viewBox="0 0 493.49 112.07"><defs><style>.cls-1{fill:#dcd2ff;}.cls-1,.cls-2,.cls-3{stroke-width:0px;}.cls-2{fill:#6c9bff;}.cls-3{fill:#fff;}</style></defs><g id="Layer_1-2"><g id="Full_Color_Light"><path class="cls-3" d="M474.75,111.6c-3.87,0-7.26-.62-10.17-1.87-2.9-1.29-5.16-3.11-6.78-5.46-1.57-2.35-2.35-5.07-2.35-8.16v-.97c0-.32.09-.58.28-.76.18-.18.44-.28.76-.28h10.72c.32,0,.58.09.76.28.18.18.28.44.28.76v.42c0,1.29.67,2.44,2.01,3.46,1.38.97,3.2,1.45,5.46,1.45,1.71,0,2.93-.35,3.67-1.04.74-.74,1.11-1.54,1.11-2.42,0-1.01-.46-1.78-1.38-2.28-.92-.51-2.6-1.13-5.05-1.87l-2.01-.55c-4.56-1.38-8.39-3.23-11.48-5.53-3.09-2.31-4.63-5.65-4.63-10.03,0-2.9.78-5.46,2.35-7.68,1.57-2.26,3.71-3.99,6.43-5.19,2.77-1.2,5.86-1.8,9.27-1.8,3.6,0,6.85.67,9.75,2.01,2.95,1.34,5.26,3.23,6.92,5.67,1.71,2.44,2.56,5.23,2.56,8.37v.62c0,.32-.09.58-.28.76-.18.18-.44.28-.76.28h-10.72c-.32,0-.58-.09-.76-.28-.18-.18-.28-.44-.28-.76v-.07c0-1.38-.62-2.63-1.87-3.73-1.25-1.15-2.93-1.73-5.05-1.73-1.48,0-2.65.3-3.53.9-.83.6-1.24,1.43-1.24,2.49,0,.83.3,1.54.9,2.14.65.55,1.61,1.11,2.9,1.66,1.29.51,3.27,1.18,5.95,2.01.37.14,1.98.65,4.84,1.52,2.9.83,5.33,2.37,7.26,4.63,1.94,2.21,2.9,4.91,2.9,8.09s-.78,5.76-2.35,8.02c-1.57,2.21-3.76,3.92-6.57,5.12-2.81,1.2-6.09,1.8-9.82,1.8Z"/><path class="cls-3" d="M429.68,111.6c-3.87,0-7.26-.62-10.17-1.87-2.9-1.29-5.16-3.11-6.78-5.46-1.57-2.35-2.35-5.07-2.35-8.16v-.97c0-.32.09-.58.28-.76.18-.18.44-.28.76-.28h10.72c.32,0,.58.09.76.28.18.18.28.44.28.76v.42c0,1.29.67,2.44,2.01,3.46,1.38.97,3.2,1.45,5.46,1.45,1.71,0,2.93-.35,3.67-1.04.74-.74,1.11-1.54,1.11-2.42,0-1.01-.46-1.78-1.38-2.28-.92-.51-2.61-1.13-5.05-1.87l-2.01-.55c-4.56-1.38-8.39-3.23-11.48-5.53-3.09-2.31-4.63-5.65-4.63-10.03,0-2.9.78-5.46,2.35-7.68,1.57-2.26,3.71-3.99,6.43-5.19,2.77-1.2,5.86-1.8,9.27-1.8,3.6,0,6.85.67,9.75,2.01,2.95,1.34,5.26,3.23,6.92,5.67,1.71,2.44,2.56,5.23,2.56,8.37v.62c0,.32-.09.58-.28.76-.18.18-.44.28-.76.28h-10.72c-.32,0-.58-.09-.76-.28-.18-.18-.28-.44-.28-.76v-.07c0-1.38-.62-2.63-1.87-3.73-1.25-1.15-2.93-1.73-5.05-1.73-1.48,0-2.65.3-3.53.9-.83.6-1.25,1.43-1.25,2.49,0,.83.3,1.54.9,2.14.65.55,1.61,1.11,2.9,1.66,1.29.51,3.27,1.18,5.95,2.01.37.14,1.98.65,4.84,1.52,2.9.83,5.33,2.37,7.26,4.63,1.94,2.21,2.91,4.91,2.91,8.09s-.78,5.76-2.35,8.02c-1.57,2.21-3.76,3.92-6.57,5.12-2.81,1.2-6.09,1.8-9.82,1.8Z"/><path class="cls-3" d="M403.52,72.73c0,.32-.09.58-.28.76-.18.18-.44.28-.76.28h-20.68c-.23,0-.35.11-.35.35v6.5c0,.23.12.35.35.35h12.79c.32,0,.58.09.76.28.18.18.28.44.28.76v8.99c0,.32-.09.58-.28.76-.18.18-.44.28-.76.28h-12.79c-.23,0-.35.12-.35.35v7.19c0,.23.12.35.35.35h20.68c.32,0,.58.09.76.28.18.18.28.44.28.76v9.06c0,.32-.09.58-.28.76-.18.18-.44.28-.76.28h-32.99c-.32,0-.58-.09-.76-.28-.18-.18-.28-.44-.28-.76v-46.34c0-.32.09-.58.28-.76.18-.18.44-.28.76-.28h32.99c.32,0,.58.09.76.28.18.18.28.44.28.76v9.06Z"/><path class="cls-3" d="M347.9,111.04c-.6,0-.99-.25-1.18-.76l-7.61-17.57c-.09-.18-.23-.28-.42-.28h-2.9c-.23,0-.35.12-.35.35v17.22c0,.32-.09.58-.28.76s-.44.28-.76.28h-10.93c-.32,0-.58-.09-.76-.28-.18-.18-.28-.44-.28-.76v-46.34c0-.32.09-.58.28-.76.18-.18.44-.28.76-.28h20.96c3.14,0,5.88.65,8.23,1.94,2.4,1.29,4.24,3.11,5.53,5.46,1.34,2.31,2.01,4.98,2.01,8.02s-.76,5.72-2.28,8.02c-1.47,2.26-3.53,3.92-6.16,4.98-.23.09-.3.25-.21.48l8.78,18.26c.09.28.14.44.14.48,0,.23-.09.42-.28.55-.18.14-.42.21-.69.21h-11.62ZM335.79,73.76c-.23,0-.35.11-.35.35v8.09c0,.23.12.35.35.35h6.5c1.48,0,2.67-.39,3.6-1.18.92-.83,1.38-1.89,1.38-3.18s-.46-2.4-1.38-3.18c-.92-.83-2.12-1.24-3.6-1.24h-6.5Z"/><path class="cls-3" d="M295.17,111.6c-3.78,0-7.12-.76-10.03-2.28-2.86-1.52-5.09-3.67-6.71-6.43-1.57-2.77-2.35-5.95-2.35-9.54v-13.07c0-3.6.78-6.76,2.35-9.48,1.61-2.77,3.85-4.91,6.71-6.43,2.9-1.52,6.25-2.28,10.03-2.28s6.99.74,9.89,2.21c2.9,1.43,5.14,3.39,6.71,5.88,1.61,2.49,2.42,5.21,2.42,8.16v.07c0,.32-.09.58-.28.76-.18.18-.44.28-.76.28h-10.86c-.69,0-1.04-.21-1.04-.62,0-1.52-.55-2.84-1.66-3.94-1.06-1.11-2.54-1.66-4.43-1.66s-3.32.62-4.43,1.87c-1.11,1.2-1.66,2.81-1.66,4.84v13.83c0,1.98.62,3.6,1.87,4.84,1.29,1.25,2.88,1.87,4.77,1.87,1.71,0,3.09-.46,4.15-1.38,1.11-.97,1.66-2.28,1.66-3.94v-.9c0-.23-.12-.35-.35-.35h-6.09c-.32,0-.58-.09-.76-.28-.18-.18-.28-.44-.28-.76v-8.3c0-.32.09-.58.28-.76.18-.18.44-.28.76-.28h18.05c.32,0,.58.09.76.28.18.18.28.44.28.76v9.48c0,3.41-.81,6.45-2.42,9.13-1.57,2.67-3.8,4.75-6.71,6.22-2.86,1.48-6.16,2.21-9.89,2.21Z"/><path class="cls-3" d="M249.03,111.87c-3.83,0-7.22-.76-10.17-2.28-2.9-1.57-5.16-3.73-6.78-6.5-1.61-2.81-2.42-6.06-2.42-9.75v-13c0-3.6.81-6.78,2.42-9.54,1.61-2.77,3.87-4.91,6.78-6.43,2.95-1.52,6.34-2.28,10.17-2.28s7.26.76,10.17,2.28c2.95,1.52,5.23,3.67,6.85,6.43,1.61,2.77,2.42,5.95,2.42,9.54v13c0,3.69-.81,6.94-2.42,9.75-1.61,2.77-3.9,4.93-6.85,6.5-2.9,1.52-6.29,2.28-10.17,2.28ZM249.03,100.74c1.94,0,3.48-.62,4.63-1.87,1.2-1.29,1.8-3,1.8-5.12v-13.56c0-2.12-.6-3.8-1.8-5.05-1.15-1.29-2.7-1.94-4.63-1.94s-3.44.65-4.63,1.94c-1.15,1.25-1.73,2.93-1.73,5.05v13.56c0,2.12.58,3.83,1.73,5.12,1.2,1.25,2.74,1.87,4.63,1.87Z"/><path class="cls-3" d="M209.73,111.04c-.6,0-.99-.25-1.18-.76l-7.61-17.57c-.09-.18-.23-.28-.42-.28h-2.9c-.23,0-.35.12-.35.35v17.22c0,.32-.09.58-.28.76-.18.18-.44.28-.76.28h-10.93c-.32,0-.58-.09-.76-.28-.18-.18-.28-.44-.28-.76v-46.34c0-.32.09-.58.28-.76.18-.18.44-.28.76-.28h20.96c3.14,0,5.88.65,8.23,1.94,2.4,1.29,4.24,3.11,5.53,5.46,1.34,2.31,2.01,4.98,2.01,8.02s-.76,5.72-2.28,8.02c-1.48,2.26-3.53,3.92-6.16,4.98-.23.09-.3.25-.21.48l8.78,18.26c.09.28.14.44.14.48,0,.23-.09.42-.28.55-.18.14-.42.21-.69.21h-11.62ZM197.63,73.76c-.23,0-.35.11-.35.35v8.09c0,.23.11.35.35.35h6.5c1.47,0,2.67-.39,3.6-1.18.92-.83,1.38-1.89,1.38-3.18s-.46-2.4-1.38-3.18c-.92-.83-2.12-1.24-3.6-1.24h-6.5Z"/><path class="cls-3" d="M160.45,62.63c3.27,0,6.16.67,8.65,2.01,2.49,1.29,4.4,3.16,5.74,5.6,1.38,2.4,2.07,5.16,2.07,8.3s-.71,5.81-2.14,8.16c-1.43,2.35-3.44,4.17-6.02,5.46-2.58,1.29-5.56,1.94-8.92,1.94h-7.33c-.23,0-.35.11-.35.35v15.56c0,.32-.09.58-.28.76-.18.18-.44.28-.76.28h-10.93c-.32,0-.58-.09-.76-.28-.18-.18-.28-.44-.28-.76v-46.34c0-.32.09-.58.28-.76.18-.18.44-.28.76-.28h20.26ZM158.31,83.72c1.71,0,3.07-.44,4.08-1.31,1.06-.92,1.59-2.12,1.59-3.6s-.53-2.74-1.59-3.67c-1.01-.92-2.37-1.38-4.08-1.38h-5.81c-.23,0-.35.11-.35.35v9.27c0,.23.12.35.35.35h5.81Z"/><path class="cls-3" d="M285.93,49.51c-.28,0-.53-.07-.76-.21-.23-.18-.37-.41-.42-.69l-13.69-46.34c-.05-.09-.07-.21-.07-.35,0-.55.32-.83.97-.83h11.76c.6,0,.97.3,1.11.9l5.88,22.55c.05.14.11.23.21.28.09,0,.16-.09.21-.28l4.63-22.55c.14-.6.53-.9,1.18-.9h10.1c.6,0,.97.3,1.11.9l5.19,22.55c.05.18.11.28.21.28s.16-.09.21-.28l5.19-22.55c.14-.6.51-.9,1.11-.9h11.83c.37,0,.62.12.76.35.18.18.23.46.14.83l-12.31,46.34c-.14.6-.51.9-1.11.9h-11.07c-.65,0-1.04-.3-1.18-.9l-4.98-23.79c-.05-.14-.11-.21-.21-.21s-.16.07-.21.21l-4.36,23.72c-.14.65-.51.97-1.11.97h-10.31Z"/><path class="cls-3" d="M247.84,50.34c-3.83,0-7.22-.76-10.17-2.28-2.9-1.57-5.16-3.73-6.78-6.5-1.61-2.81-2.42-6.06-2.42-9.75v-13c0-3.6.81-6.78,2.42-9.54,1.61-2.77,3.87-4.91,6.78-6.43,2.95-1.52,6.34-2.28,10.17-2.28s7.26.76,10.17,2.28c2.95,1.52,5.23,3.67,6.85,6.43,1.61,2.77,2.42,5.95,2.42,9.54v13c0,3.69-.81,6.94-2.42,9.75-1.61,2.77-3.9,4.93-6.85,6.5-2.9,1.52-6.29,2.28-10.17,2.28ZM247.84,39.2c1.94,0,3.48-.62,4.63-1.87,1.2-1.29,1.8-3,1.8-5.12v-13.56c0-2.12-.6-3.8-1.8-5.05-1.15-1.29-2.7-1.94-4.63-1.94s-3.44.65-4.63,1.94c-1.15,1.24-1.73,2.93-1.73,5.05v13.56c0,2.12.58,3.83,1.73,5.12,1.2,1.24,2.74,1.87,4.63,1.87Z"/><path class="cls-3" d="M208.54,49.51c-.6,0-.99-.25-1.18-.76l-7.61-17.57c-.09-.18-.23-.28-.41-.28h-2.91c-.23,0-.35.12-.35.35v17.22c0,.32-.09.58-.28.76-.18.18-.44.28-.76.28h-10.93c-.32,0-.58-.09-.76-.28-.18-.18-.28-.44-.28-.76V2.13c0-.32.09-.58.28-.76.18-.18.44-.28.76-.28h20.96c3.14,0,5.88.65,8.23,1.94,2.4,1.29,4.24,3.11,5.53,5.46,1.34,2.31,2.01,4.98,2.01,8.02s-.76,5.72-2.28,8.02c-1.48,2.26-3.53,3.92-6.16,4.98-.23.09-.3.25-.21.48l8.78,18.26c.09.28.14.44.14.48,0,.23-.09.41-.28.55-.18.14-.42.21-.69.21h-11.62ZM196.44,12.23c-.23,0-.35.12-.35.35v8.09c0,.23.11.35.35.35h6.5c1.48,0,2.67-.39,3.6-1.18.92-.83,1.38-1.89,1.38-3.18s-.46-2.4-1.38-3.18c-.92-.83-2.12-1.24-3.6-1.24h-6.5Z"/><path class="cls-3" d="M155.82,50.06c-3.78,0-7.12-.76-10.03-2.28-2.86-1.52-5.09-3.67-6.71-6.43-1.57-2.77-2.35-5.95-2.35-9.54v-13.07c0-3.6.78-6.75,2.35-9.48,1.61-2.77,3.85-4.91,6.71-6.43,2.9-1.52,6.25-2.28,10.03-2.28s6.99.74,9.89,2.21c2.9,1.43,5.14,3.39,6.71,5.88,1.61,2.49,2.42,5.21,2.42,8.16v.07c0,.32-.09.58-.28.76-.18.18-.44.28-.76.28h-10.86c-.69,0-1.04-.21-1.04-.62,0-1.52-.55-2.84-1.66-3.94-1.06-1.11-2.54-1.66-4.43-1.66s-3.32.62-4.43,1.87c-1.11,1.2-1.66,2.81-1.66,4.84v13.83c0,1.98.62,3.6,1.87,4.84,1.29,1.24,2.88,1.87,4.77,1.87,1.71,0,3.09-.46,4.15-1.38,1.11-.97,1.66-2.28,1.66-3.94v-.9c0-.23-.11-.35-.35-.35h-6.09c-.32,0-.58-.09-.76-.28-.18-.18-.28-.44-.28-.76v-8.3c0-.32.09-.58.28-.76.18-.18.44-.28.76-.28h18.05c.32,0,.58.09.76.28.18.18.28.44.28.76v9.48c0,3.41-.81,6.46-2.42,9.13-1.57,2.67-3.8,4.75-6.71,6.22-2.86,1.48-6.16,2.21-9.89,2.21Z"/><polygon class="cls-1" points="51.2 0 35.69 0 35.69 24.73 18.83 7.87 7.87 18.83 24.73 35.69 0 35.69 0 51.2 51.19 51.2 51.19 51.19 51.2 51.19 51.2 0"/><polygon class="cls-1" points="51.2 112.07 35.69 112.07 35.69 87.34 18.83 104.2 7.87 93.24 24.73 76.37 0 76.37 0 60.87 51.19 60.87 51.19 60.87 51.2 60.87 51.2 112.07"/><polygon class="cls-2" points="112.07 51.2 96.56 51.2 96.56 26.47 79.7 43.33 68.74 32.37 85.6 15.5 60.87 15.5 60.87 0 112.07 0 112.07 0 112.07 0 112.07 51.2"/><polygon class="cls-1" points="60.87 112.07 76.37 112.07 76.37 87.34 93.24 104.2 104.2 93.24 87.33 76.37 112.07 76.37 112.07 60.87 60.87 60.87 60.87 60.87 60.87 60.87 60.87 112.07"/></g></g></svg>