<?xml version="1.0" encoding="UTF-8"?><svg id="Layer_2" xmlns="http://www.w3.org/2000/svg" viewBox="0 0 468.55 188.54"><g id="Layer_1-2"><path d="M70.27,31.03c-4.43,0-8.24,1.15-11.45,3.44-3.2,2.29-5.63,5.62-7.3,9.96-1.5-4.51-3.93-7.87-7.3-10.08-3.36-2.21-7.41-3.32-12.16-3.32-3.8,0-7.12.83-9.96,2.49-2.85,1.66-5.18,4.07-7,7.24l-.47-8.3H5.74v59.31h9.49v-30.72c0-6.72,1.31-11.92,3.91-15.6,2.61-3.68,6.21-5.52,10.79-5.52,2.69,0,5.08.57,7.18,1.72,2.09,1.15,3.76,3.26,4.98,6.35,1.22,3.08,1.84,7.55,1.84,13.4v30.37h9.49v-30.72c0-6.72,1.31-11.92,3.91-15.6,2.61-3.68,6.25-5.52,10.91-5.52,2.69,0,5.06.57,7.12,1.72,2.06,1.15,3.7,3.26,4.92,6.35,1.23,3.08,1.84,7.55,1.84,13.4v30.37h9.49v-33.93c.08-9.02-1.8-15.74-5.63-20.17-3.84-4.43-9.07-6.64-15.72-6.64Z"/><path d="M150.97,46.57c-2.21-4.9-5.34-8.72-9.37-11.45-4.03-2.73-8.82-4.09-14.35-4.09s-10.74,1.33-15.12,3.97c-4.39,2.65-7.83,6.31-10.32,10.97-2.49,4.67-3.74,10.04-3.74,16.13s1.25,11.47,3.74,16.13c2.49,4.67,5.95,8.32,10.38,10.97,4.43,2.65,9.53,3.97,15.3,3.97,4.11,0,7.85-.63,11.21-1.9,3.36-1.26,6.29-3.04,8.78-5.34,2.49-2.29,4.49-4.98,5.99-8.07l-8.18-4.15c-1.58,3.24-3.82,5.85-6.7,7.83-2.89,1.98-6.43,2.97-10.62,2.97-3.96,0-7.47-.89-10.56-2.67-3.08-1.78-5.48-4.37-7.18-7.77-1.45-2.91-2.28-6.31-2.49-10.2h46.56c0-6.64-1.11-12.41-3.32-17.32ZM117.93,41.7c2.89-1.5,5.95-2.25,9.19-2.25s6.25.75,8.78,2.25c2.53,1.5,4.55,3.64,6.05,6.41,1.23,2.26,1.95,4.88,2.17,7.83h-35.77c.25-2.99,1.11-5.63,2.58-7.89,1.78-2.73,4.11-4.84,7-6.35Z"/><path d="M206.69,42.54c-4.13-6.87-10.8-11.59-20.02-11.51-35.67-.83-35.65,62.96,0,62.16,9.33.08,16.06-4.77,20.18-11.79.08,5.56.19,9.41.34,10.36h9.02V8.73h-9.49c.03,2.94-.02,17.59-.02,33.81ZM188.81,84.53c-25.58.39-25.68-45.12-.12-44.84,11.52,0,17.53,10.27,18.02,20.98,0,.91,0,1.81,0,2.7-.43,10.74-6.4,21.09-17.91,21.15Z"/><path d="M233.09,6.83c-1.58,0-2.97.57-4.15,1.72-1.19,1.15-1.78,2.55-1.78,4.21s.59,2.97,1.78,4.15c1.19,1.19,2.57,1.78,4.15,1.78,1.66,0,3.06-.59,4.21-1.78,1.15-1.19,1.72-2.57,1.72-4.15s-.57-3.06-1.72-4.21c-1.15-1.15-2.55-1.72-4.21-1.72Z"/><rect x="228.22" y="32.45" width="9.49" height="59.31"/><path d="M292.79,43.9c-1.82-4.23-4.53-7.43-8.13-9.61-3.6-2.17-8.17-3.26-13.7-3.26-3.64,0-6.88.53-9.73,1.6-2.85,1.07-5.34,2.61-7.47,4.63-2.14,2.02-3.96,4.41-5.46,7.18l8.54,3.32c1.5-2.85,3.42-4.92,5.75-6.23,2.33-1.31,5.12-1.96,8.36-1.96,3.56,0,6.44.79,8.66,2.37,2.21,1.58,3.83,3.9,4.86,6.94.71,2.12,1.17,4.63,1.39,7.53h-16.58c-7.2,0-12.79,1.6-16.78,4.8-3.99,3.2-5.99,7.81-5.99,13.82,0,5.69,1.96,10.14,5.87,13.34,3.91,3.2,9.35,4.8,16.31,4.8s12.26-2.39,15.9-7.18c.55-.72,1.04-1.49,1.51-2.29l.39,8.04h8.78l.12-32.15c.08-6.25-.79-11.49-2.61-15.72ZM283.95,76.4c-1.38,2.73-3.34,4.82-5.87,6.29-2.53,1.46-5.5,2.19-8.9,2.19-4.11,0-7.32-.89-9.61-2.67-2.29-1.78-3.44-4.21-3.44-7.3,0-3.4,1.17-6.01,3.5-7.83,2.33-1.82,6.27-2.73,11.8-2.73h14.59v2.37c0,3.72-.69,6.94-2.08,9.67Z"/><path d="M39.53,152.27c-2.38,1.53-5.01,2.29-7.91,2.29s-5.63-.72-7.97-2.17c-2.34-1.45-4.15-3.4-5.43-5.85-1.29-2.45-1.93-5.33-1.93-8.63s.64-6.2,1.93-8.69c1.29-2.49,3.06-4.45,5.31-5.85,2.25-1.41,4.87-2.11,7.85-2.11s5.53.71,7.91,2.11c2.37,1.41,4.12,3.28,5.25,5.61l14.97-5.31c-2.25-5.63-5.88-9.94-10.86-12.92-4.99-2.98-10.5-4.47-16.54-4.47s-11.83,1.35-16.66,4.04c-4.83,2.7-8.61,6.42-11.35,11.17-2.74,4.75-4.1,10.22-4.1,16.42s1.37,11.57,4.1,16.36c2.73,4.79,6.56,8.53,11.47,11.23,4.91,2.69,10.5,4.04,16.78,4.04s11.65-1.57,16.6-4.71c4.95-3.14,8.59-7.56,10.92-13.28l-15.09-5.31c-1.13,2.5-2.88,4.51-5.25,6.04Z"/><path d="M105.85,109.79c-4.06-2.33-9.15-3.5-15.27-3.5-5.07,0-9.35.78-12.85,2.35-3.5,1.57-6.34,3.58-8.51,6.03-2.17,2.46-3.82,4.97-4.95,7.54l14,4.83c1.45-2.33,3.22-4.06,5.31-5.19,2.09-1.13,4.42-1.69,7-1.69,2.82,0,5.05.71,6.7,2.11,1.65,1.41,2.86,3.4,3.62,5.97.31,1.03.53,2.18.72,3.38h-14.18c-7.81,0-13.86,1.63-18.17,4.89-4.31,3.26-6.46,8.11-6.46,14.54,0,5.87,1.99,10.42,5.98,13.64,3.98,3.22,9.6,4.83,16.84,4.83s12.53-2.29,15.63-6.88c.35-.52.68-1.07.99-1.64l.28,7.07h14.85l.36-33.43c.08-5.79-.87-10.8-2.84-15.03-1.97-4.22-4.99-7.5-9.05-9.84ZM100.24,149.56c-1.21,1.97-2.84,3.58-4.89,4.83-2.05,1.25-4.41,1.87-7.06,1.87-2.9,0-5.15-.5-6.76-1.51-1.61-1.01-2.41-2.39-2.41-4.16,0-2.25,1-4,3.02-5.25,2.01-1.25,5.63-1.87,10.86-1.87h9.05c0,2.09-.6,4.13-1.81,6.1Z"/><path d="M163.94,139.36c0,4.99-1.09,8.79-3.26,11.41-2.17,2.62-5.35,3.88-9.54,3.8-2.17,0-4.12-.5-5.85-1.51-1.73-1.01-3.06-2.66-3.98-4.95-.93-2.29-1.39-5.45-1.39-9.48v-30.9h-15.93v34.16c0,6.44.86,11.69,2.59,15.75,1.73,4.06,4.29,7.06,7.67,8.99,3.38,1.93,7.48,2.9,12.31,2.9s8.57-1.19,11.95-3.56c2.21-1.55,4.1-3.56,5.69-6l.71,8.12h14.97v-60.35h-15.93v31.62Z"/><path d="M228.37,136.4c-2.37-2.13-5.53-3.68-9.48-4.65l-7.85-1.93c-2.09-.48-3.7-1.07-4.83-1.75-1.13-.68-1.69-1.55-1.69-2.59,0-1.61.58-2.88,1.75-3.8,1.17-.92,2.84-1.39,5.01-1.39s4.35.5,6.52,1.51c2.17,1.01,3.54,2.31,4.1,3.92l13.16-6.04c-.89-2.66-2.5-4.99-4.83-7-2.33-2.01-5.13-3.58-8.39-4.71-3.26-1.13-6.78-1.69-10.56-1.69-7.32,0-12.97,1.69-16.96,5.07-3.98,3.38-5.98,8.17-5.98,14.36,0,4.35,1.67,8.19,5.01,11.53,3.34,3.34,7.91,5.77,13.7,7.3l5.55,1.45c2.01.48,3.6,1.07,4.77,1.75,1.17.68,1.75,1.75,1.75,3.2s-.72,2.56-2.17,3.32c-1.45.77-3.5,1.15-6.16,1.15s-5.15-.7-7.24-2.11c-2.09-1.41-3.74-3.08-4.95-5.01l-13.64,6.28c1.45,3.22,3.46,5.93,6.04,8.15,2.57,2.21,5.55,3.9,8.93,5.07,3.38,1.17,7,1.75,10.86,1.75,4.67,0,8.83-.77,12.49-2.29,3.66-1.53,6.56-3.68,8.69-6.46,2.13-2.78,3.2-5.97,3.2-9.6,0-2.49-.54-5.05-1.63-7.66-1.09-2.61-2.82-4.99-5.19-7.12Z"/><path d="M278.4,153.18c-2.09,1.41-4.79,2.11-8.09,2.11-2.74,0-5.29-.58-7.67-1.75-2.37-1.17-4.31-2.86-5.79-5.07-1.24-1.84-1.96-3.96-2.16-6.34h44.23c0-7.64-1.35-14.14-4.04-19.49-2.7-5.35-6.28-9.41-10.74-12.19-4.47-2.78-9.35-4.16-14.66-4.16-6.12,0-11.53,1.35-16.23,4.04-4.71,2.7-8.41,6.42-11.1,11.17-2.7,4.75-4.04,10.22-4.04,16.42s1.31,11.67,3.92,16.42c2.61,4.75,6.22,8.47,10.8,11.17,4.59,2.69,9.86,4.04,15.81,4.04,4.75,0,8.97-.65,12.67-1.93,3.7-1.29,6.9-3.16,9.6-5.61,2.7-2.45,4.89-5.37,6.58-8.75l-14.24-5.55c-1.13,2.25-2.74,4.08-4.83,5.49ZM263.07,121.01c2.09-.8,4.06-1.21,5.91-1.21s3.76.4,5.73,1.21c1.97.81,3.64,2.07,5.01,3.8,1.13,1.43,1.79,3.27,1.98,5.49h-26.17c.21-2.23.93-4.06,2.16-5.49,1.49-1.73,3.28-3,5.37-3.8Z"/><path d="M360.98,8.5c6.2,0,12.03,2.41,16.41,6.8l40.22,40.22,6.01,6.01.09-.09,32.82,32.82-78.97,78.97c-4.38,4.38-10.21,6.8-16.41,6.8s-12.03-2.41-16.41-6.8-6.8-10.21-6.8-16.41,2.41-12.03,6.8-16.41l40.05-40.05,6.01-6.01-6.01-6.01-40.22-40.22c-9.05-9.05-9.05-23.78,0-32.83,4.38-4.38,10.21-6.8,16.41-6.8M360.98,0c-8.12,0-16.23,3.1-22.42,9.29h0c-12.38,12.38-12.38,32.46,0,44.85l40.22,40.22-40.05,40.05c-12.38,12.38-12.38,32.46,0,44.85h0c6.19,6.19,14.31,9.29,22.42,9.29s16.23-3.1,22.42-9.29l84.98-84.98-44.85-44.85-.09.09-40.22-40.22c-6.19-6.19-14.31-9.29-22.42-9.29h0Z"/></g></svg>